<svg width="166" height="204" viewBox="0 0 166 204" fill="none" xmlns="http://www.w3.org/2000/svg">
<path d="M160.698 69.5506C159.516 70.4686 138.636 82.2406 138.636 108.416C138.636 138.693 165.205 149.404 166 149.669C165.878 150.322 161.779 164.338 151.992 178.62C143.264 191.188 134.15 203.735 120.284 203.735C106.419 203.735 102.85 195.676 86.8436 195.676C71.2448 195.676 65.6986 204 53.0156 204C40.3326 204 31.4831 192.371 21.3082 178.089C9.52242 161.319 0 135.266 0 110.538C0 70.8767 25.7737 49.8422 51.1397 49.8422C64.6179 49.8422 75.8531 58.6967 84.3152 58.6967C92.3695 58.6967 104.93 49.3117 120.264 49.3117C126.075 49.3117 146.955 49.8422 160.698 69.5506ZM112.984 32.5208C119.326 24.9925 123.812 14.5467 123.812 4.10081C123.812 2.65227 123.689 1.18332 123.424 0C113.107 0.387639 100.832 6.87549 93.4298 15.4647C87.6185 22.075 82.1946 32.5209 82.1946 43.1095C82.1946 44.7009 82.4597 46.2922 82.582 46.8023C83.2345 46.9247 84.2948 47.0675 85.3551 47.0675C94.6125 47.0675 106.255 40.8653 112.984 32.5208Z" fill="black"/>
</svg>
