<svg width="200" height="204" viewBox="0 0 200 204" fill="none" xmlns="http://www.w3.org/2000/svg">
<path d="M200 104.318C200 97.0855 199.351 90.1309 198.145 83.4545H102.041V122.956H156.957C154.545 135.66 147.31 146.416 136.456 153.649V179.335H169.573C188.868 161.531 200 135.382 200 104.318Z" fill="#4285F4"/>
<path d="M102.041 204C129.592 204 152.69 194.913 169.573 179.335L136.456 153.649C127.365 159.769 115.77 163.478 102.041 163.478C75.5102 163.478 52.9685 145.582 44.898 121.473H10.9462V147.807C27.7366 181.096 62.1521 204 102.041 204Z" fill="#34A853"/>
<path d="M44.898 121.38C42.8571 115.26 41.6512 108.769 41.6512 102C41.6512 95.2309 42.8571 88.74 44.898 82.62V56.2855H10.9462C3.98887 70.0091 0 85.4945 0 102C0 118.505 3.98887 133.991 10.9462 147.715L37.384 127.129L44.898 121.38Z" fill="#FBBC05"/>
<path d="M102.041 40.6145C117.069 40.6145 130.427 45.8073 141.095 55.8218L170.315 26.6127C152.597 10.1073 129.592 0 102.041 0C62.1521 0 27.7366 22.9036 10.9462 56.2855L44.898 82.62C52.9685 58.5109 75.5102 40.6145 102.041 40.6145Z" fill="#EA4335"/>
</svg>
