<svg width="160" height="32" viewBox="0 0 160 32" fill="none" xmlns="http://www.w3.org/2000/svg">
<g clip-path="url(#clip0_1023_2)">
<path d="M46.8241 26.51V17.8308H60.2971V12.4599H46.8241V5.3918H60.2971V0H43.2131H40.1765H36.5197L31.4659 22.267L25.6948 0H17.7879L11.7687 21.8989L6.80665 0H0L7.86111 31.8809H15.0696L21.6066 8.04723L28.1651 31.8809H35.2172L40.1765 12.1127V31.8809H60.2971V26.51H46.8241Z" fill="#1E87F0"/>
<path d="M74.8168 5.07588C74.7891 5.07588 74.76 5.07588 74.7331 5.07588C74.6277 5.07588 74.52 5.07327 74.4066 5.07065C74.3687 5.07065 74.328 5.07065 74.2909 5.07065C74.1855 5.07065 74.0749 5.06803 73.9644 5.06548C73.9156 5.06548 73.8647 5.06548 73.8131 5.06548C73.7084 5.06548 73.6 5.06548 73.4894 5.06287C73.4327 5.06287 73.3767 5.06287 73.32 5.06287C73.2094 5.06287 73.0931 5.06287 72.9774 5.06287C72.9127 5.06287 72.8501 5.06287 72.7832 5.06287C72.6725 5.06287 72.5565 5.06287 72.4406 5.06287C72.3678 5.06287 72.2977 5.06287 72.2221 5.06287C72.09 5.06287 71.9551 5.06287 71.8176 5.06287C71.7583 5.06287 71.7017 5.06287 71.6396 5.06287C71.4374 5.06287 71.2297 5.06287 71.0167 5.06287H67.1064V12.614H71.5695C71.7287 12.614 71.885 12.614 72.0361 12.614C72.117 12.614 72.1925 12.614 72.2734 12.614C72.3435 12.614 72.4164 12.614 72.4865 12.614C72.5836 12.614 72.6779 12.614 72.7723 12.614C72.8152 12.614 72.8589 12.614 72.9018 12.614C73.0174 12.614 73.1338 12.614 73.2443 12.614C73.2603 12.614 73.2763 12.614 73.2931 12.614C73.4138 12.614 73.5332 12.614 73.6488 12.6114C73.6539 12.6114 73.6596 12.6114 73.6647 12.6114C73.7833 12.6114 73.8967 12.6088 74.0073 12.6062C74.0102 12.6062 74.0153 12.6062 74.0182 12.6062C74.1316 12.6062 74.2393 12.6036 74.3447 12.601C74.3447 12.601 74.3469 12.601 74.3498 12.601C74.4553 12.601 74.5578 12.5983 74.6575 12.5957C75.5528 12.5775 76.1702 12.5487 76.5099 12.5096C77.675 12.3764 78.5921 11.9874 79.2583 11.3398C79.9238 10.6949 80.2584 9.84367 80.2584 8.7888C80.2584 7.73393 79.9696 6.95849 79.3958 6.32661C78.8212 5.69474 77.966 5.31349 76.8307 5.18032C76.5318 5.14636 75.9811 5.12287 75.1862 5.10461C75.0669 5.10199 74.9404 5.09938 74.8109 5.09676L74.8168 5.07588Z" fill="#1E87F0"/>
<path d="M152.77 0L144.496 23.6848L135.947 0H108.931V5.83829C108.413 5.00015 107.82 4.23511 107.146 3.54578C105.768 2.14108 104.114 1.16193 102.181 0.611C100.743 0.20626 98.6532 0.00261904 95.9135 0.00261904H80.0723C81.2512 0.23499 82.3138 0.663221 83.2629 1.28724C84.2986 1.97133 85.1611 2.88002 85.8521 4.01576C86.5423 5.15158 86.887 6.4258 86.887 7.83573C86.887 9.36581 86.4616 10.768 85.6121 12.0447C84.7597 13.3216 83.6055 14.2798 82.1494 14.9169C84.204 15.4965 85.7844 16.4836 86.887 17.8779C87.9903 19.2748 88.5431 20.9145 88.5431 22.7997C88.5431 24.2853 88.1874 25.7292 87.4725 27.1314C86.7605 28.5335 85.7844 29.6563 84.5517 30.4944C83.5706 31.1628 82.4025 31.6224 81.057 31.8809H96.2749C98.7288 31.8809 100.692 31.6563 102.159 31.2072C104.12 30.5988 105.678 29.7503 106.83 28.6641C107.626 27.9147 108.324 27.0452 108.928 26.0556V31.8809H133.97V26.51H115.576V17.8334H132.107V12.4625H115.576V5.39442H130.581L140.62 32.0036H147.902L160.005 0H152.77ZM103.823 21.7997C103.373 23.2278 102.793 24.254 102.084 24.8755C101.372 25.4995 100.479 25.9407 99.4001 26.2018C98.5776 26.4055 97.2379 26.5074 95.3796 26.5074H94.0421V5.39442C96.3986 5.41006 98.0088 5.50933 98.8612 5.69734C100.104 5.95844 101.129 6.45976 101.938 7.19862C102.747 7.93755 103.376 8.96631 103.826 10.2875C104.276 11.6061 104.5 13.4991 104.5 15.9639C104.5 18.4288 104.276 20.374 103.826 21.8023L103.823 21.7997Z" fill="#1E87F0"/>
<path d="M73.811 18.0423C73.7376 18.0423 73.6648 18.0423 73.5921 18.0397C73.4954 18.0397 73.3957 18.0397 73.2954 18.0371C73.2335 18.0371 73.1717 18.0371 73.1092 18.0371C72.9426 18.0371 72.7753 18.0371 72.6025 18.0371H67.1038V26.7684H73.4059C73.4954 26.7684 73.5812 26.7684 73.6706 26.7684C75.9711 26.7632 77.4402 26.698 78.0773 26.5673C79.0883 26.3898 79.9137 25.9538 80.5501 25.2645C81.1865 24.5751 81.5043 23.6508 81.5043 22.4915C81.5043 21.5124 81.2592 20.6794 80.7683 19.998C80.2774 19.3139 79.5683 18.8178 78.6402 18.5071C77.8933 18.2564 76.4373 18.105 74.2801 18.058C74.2045 18.058 74.1288 18.0554 74.0532 18.0527C73.9725 18.0527 73.8946 18.0501 73.811 18.0475V18.0423Z" fill="#1E87F0"/>
</g>
<defs>
<clipPath id="clip0_1023_2">
<rect width="160" height="32" fill="white"/>
</clipPath>
</defs>
</svg>
